<svg viewBox="0 0 14 14" xmlns="http://www.w3.org/2000/svg" xmlns:xlink="http://www.w3.org/1999/xlink" width="14.000000" height="14.000000" fill="none" customFrame="#000000">
	<rect id="message-circle" width="14.000000" height="14.000000" x="0.000000" y="0.000000" />
	<path id="矢量 4" d="M1.80019 10.2136L1.17894 12.1327C1.15892 12.2301 1.1641 12.3309 1.19398 12.4257C1.22385 12.5204 1.27744 12.606 1.34966 12.6742C1.42188 12.7425 1.51034 12.7911 1.60664 12.8156C1.70294 12.8401 1.8039 12.8396 1.89994 12.8141L3.89086 12.2319C4.10536 12.1894 4.3275 12.208 4.53194 12.2856C5.63678 12.8015 6.87553 12.9583 8.07407 12.7338C9.2726 12.5093 10.3707 11.9149 11.2139 11.0341C12.0571 10.1533 12.6032 9.03038 12.7752 7.8232C12.9472 6.61602 12.7366 5.38527 12.173 4.30396C11.6094 3.22266 10.7211 2.34515 9.63303 1.7948C8.54492 1.24444 7.31169 1.04891 6.10671 1.23568C4.90172 1.42246 3.78556 1.98215 2.91511 2.83608C2.04466 3.69001 1.4637 4.79525 1.25388 5.99644C1.04406 7.19763 1.21594 8.43438 1.74536 9.53283C1.83113 9.74919 1.85023 9.98627 1.80019 10.2136Z" fill-rule="nonzero" stroke="rgb(122,96,80)" stroke-linecap="round" stroke-linejoin="round" stroke-width="1.166667" />
</svg>
