<svg viewBox="0 0 15 15" xmlns="http://www.w3.org/2000/svg" xmlns:xlink="http://www.w3.org/1999/xlink" width="15.000000" height="15.000000" fill="none" customFrame="#000000">
	<rect id="palette" width="15.000000" height="15.000000" x="0.000000" y="0.000000" />
	<path id="矢量 173" d="M3.82634 12.5564C2.75855 11.7806 1.96376 10.6866 1.5559 9.43136C1.14803 8.17609 1.14803 6.82392 1.5559 5.56864C1.96376 4.31337 2.75854 3.21944 3.82634 2.44365C4.89414 1.66784 6.18013 1.25 7.5 1.25C8.5971 1.25 9.67488 1.50991 10.625 2.00361C11.5751 2.4973 12.3641 3.20739 12.9127 4.0625C13.4612 4.91761 13.75 5.88761 13.75 6.875C13.75 7.42355 13.6056 7.96244 13.3313 8.4375C13.0571 8.91256 12.6626 9.30705 12.1875 9.58133C11.7124 9.85561 11.1736 10 10.625 10L9.21875 10C9.01563 10 8.81652 10.0566 8.64373 10.1634C8.47095 10.2701 8.33131 10.4229 8.24047 10.6046C8.14963 10.7863 8.11118 10.9897 8.12942 11.192C8.14766 11.3943 8.22188 11.5875 8.34375 11.75L8.53125 12C8.65312 12.1625 8.72734 12.3557 8.74558 12.558C8.76382 12.7603 8.72537 12.9637 8.63453 13.1454C8.54369 13.3271 8.40405 13.4799 8.23127 13.5866C8.05848 13.6934 7.85937 13.75 7.65625 13.75L7.5 13.75C6.18013 13.75 4.89414 13.3322 3.82634 12.5564Z" fill-rule="nonzero" stroke="rgb(122,96,80)" stroke-linecap="round" stroke-linejoin="round" stroke-width="1.250000" />
	<circle id="椭圆 18" cx="8.4375" cy="4.0625" r="0.3125" fill="rgb(122,96,80)" />
	<circle id="椭圆 18" cx="8.4375" cy="4.0625" r="0.3125" stroke="rgb(122,96,80)" stroke-linecap="round" stroke-linejoin="round" stroke-width="1.250000" />
	<circle id="椭圆 19" cx="10.9375" cy="6.5625" r="0.3125" fill="rgb(122,96,80)" />
	<circle id="椭圆 19" cx="10.9375" cy="6.5625" r="0.3125" stroke="rgb(122,96,80)" stroke-linecap="round" stroke-linejoin="round" stroke-width="1.250000" />
	<circle id="椭圆 20" cx="4.0625" cy="7.8125" r="0.3125" fill="rgb(122,96,80)" />
	<circle id="椭圆 20" cx="4.0625" cy="7.8125" r="0.3125" stroke="rgb(122,96,80)" stroke-linecap="round" stroke-linejoin="round" stroke-width="1.250000" />
	<circle id="椭圆 21" cx="5.3125" cy="4.6875" r="0.3125" fill="rgb(122,96,80)" />
	<circle id="椭圆 21" cx="5.3125" cy="4.6875" r="0.3125" stroke="rgb(122,96,80)" stroke-linecap="round" stroke-linejoin="round" stroke-width="1.250000" />
</svg>
