<svg viewBox="0 0 12 12" xmlns="http://www.w3.org/2000/svg" xmlns:xlink="http://www.w3.org/1999/xlink" width="12.000000" height="12.000000" fill="none" customFrame="#000000">
	<rect id="paperclip" width="12.000000" height="12.000000" x="0.000000" y="0.000000" />
	<path id="矢量 32" d="M8.00001 3.00002L3.79301 7.29302C3.64366 7.44238 3.54542 7.63519 3.51237 7.84381C3.47933 8.05243 3.51318 8.26616 3.60907 8.45436C3.70497 8.64256 3.85798 8.79557 4.04618 8.89146C4.23438 8.98735 4.44811 9.0212 4.65673 8.98816C4.86535 8.95512 5.05816 8.85688 5.20751 8.70753L9.41451 4.41452C9.66286 4.16629 9.84149 3.85705 9.93242 3.5179C10.0234 3.17874 10.0234 2.82162 9.93255 2.48244C9.8417 2.14326 9.66315 1.83397 9.41486 1.58568C9.16656 1.33739 8.85728 1.15884 8.5181 1.06799C8.17892 0.977132 7.8218 0.977176 7.48264 1.06811C7.14348 1.15905 6.83424 1.33767 6.58601 1.58602L2.39651 5.86152C2.01915 6.23279 1.74675 6.69729 1.60697 7.20787C1.46718 7.71845 1.46499 8.25693 1.60061 8.76864C1.73624 9.28034 2.00485 9.74705 2.37917 10.1214C2.75349 10.4957 3.2202 10.7643 3.7319 10.8999C4.2436 11.0355 4.78208 11.0334 5.29267 10.8936C5.80325 10.7538 6.26775 10.4814 6.63901 10.104L10.8285 5.82852" fill-rule="nonzero" stroke="rgb(122,96,80)" stroke-linecap="round" stroke-linejoin="round" stroke-width="1.000000" />
</svg>
