<svg viewBox="0 0 14 14" xmlns="http://www.w3.org/2000/svg" xmlns:xlink="http://www.w3.org/1999/xlink" width="14.000000" height="14.000000" fill="none" customFrame="#000000">
	<rect id="pencil" width="14.000000" height="14.000000" x="0.000000" y="0.000000" />
	<path id="矢量 188" d="M12.8131 3.06826C12.8674 2.72532 12.8118 2.37399 12.6542 2.0646C12.4966 1.75522 12.2451 1.50367 11.9358 1.34599C11.6264 1.1883 11.2751 1.13259 10.9321 1.18683C10.5892 1.24107 10.2722 1.40247 10.0266 1.64791L2.24145 9.43483C2.10602 9.56987 2.00585 9.73614 1.94979 9.919L1.1792 12.4577C1.16413 12.5081 1.16299 12.5617 1.17591 12.6127C1.18883 12.6638 1.21532 12.7104 1.25259 12.7476C1.28985 12.7848 1.33648 12.8112 1.38755 12.824C1.43861 12.8369 1.4922 12.8357 1.54262 12.8205L4.08187 12.0505C4.26455 11.9949 4.43081 11.8954 4.56604 11.7606L12.3518 3.97366C12.5973 3.72813 12.7588 3.41119 12.8131 3.06826Z" fill-rule="nonzero" stroke="rgb(122,96,80)" stroke-linecap="round" stroke-linejoin="round" stroke-width="1.166667" />
	<path id="矢量 189" d="M8.75 2.91666L11.0833 5.24999" stroke="rgb(122,96,80)" stroke-linecap="round" stroke-linejoin="round" stroke-width="1.166667" />
</svg>
