<svg viewBox="0 0 16 16" xmlns="http://www.w3.org/2000/svg" xmlns:xlink="http://www.w3.org/1999/xlink" width="16.000000" height="16.000000" fill="none" customFrame="#000000">
	<rect id="settings" width="16.000000" height="16.000000" x="0.000000" y="0.000000" />
	<path id="矢量 7" d="M6.44735 2.75736C6.47661 2.44948 6.59673 2.15725 6.79243 1.91778C6.98814 1.67832 7.2506 1.50243 7.54649 1.41245C7.84237 1.32248 8.15833 1.32248 8.45421 1.41245C8.7501 1.50243 9.01256 1.67832 9.20827 1.91778C9.40397 2.15725 9.52409 2.44948 9.55335 2.75736C9.57543 3.00699 9.65732 3.24763 9.79211 3.45892C9.92689 3.6702 10.1106 3.84589 10.3277 3.97114C10.5447 4.09639 10.7888 4.16749 11.0392 4.17844C11.2895 4.18938 11.5388 4.13985 11.766 4.03402C12.047 3.90643 12.3596 3.86507 12.6642 3.91517C12.9687 3.96527 13.2515 4.10459 13.4769 4.31549C13.7022 4.52638 13.86 4.79939 13.9301 5.09995C14.0002 5.40051 13.9797 5.71513 13.8709 6.00398C13.7622 6.29284 13.5703 6.54296 13.3194 6.72269C13.1143 6.86659 12.9469 7.05776 12.8313 7.28004C12.7157 7.50232 12.6554 7.74916 12.6554 7.99969C12.6554 8.25022 12.7157 8.49706 12.8313 8.71934C12.9469 8.94162 13.1143 9.13279 13.3194 9.27669C13.5703 9.45642 13.7622 9.70654 13.8709 9.99539C13.9797 10.2843 14.0002 10.5989 13.9301 10.8994C13.86 11.2 13.7022 11.473 13.4769 11.6839C13.2515 11.8948 12.9687 12.0341 12.6642 12.0842C12.3596 12.1343 12.047 12.0929 11.766 11.9654C11.5388 11.8595 11.2895 11.81 11.0392 11.8209C10.7888 11.8319 10.5447 11.903 10.3277 12.0282C10.1106 12.1535 9.92689 12.3292 9.79211 12.5405C9.65732 12.7517 9.57543 12.9924 9.55335 13.242C9.52409 13.5499 9.40397 13.8421 9.20827 14.0816C9.01256 14.3211 8.7501 14.4969 8.45421 14.5869C8.15833 14.6769 7.84237 14.6769 7.54649 14.5869C7.2506 14.4969 6.98814 14.3211 6.79243 14.0816C6.59673 13.8421 6.47661 13.5499 6.44735 13.242C6.42531 12.9923 6.34341 12.7516 6.20859 12.5402C6.07377 12.3288 5.89 12.1531 5.67284 12.0278C5.45568 11.9026 5.21153 11.8315 4.96107 11.8206C4.71061 11.8097 4.46122 11.8594 4.23402 11.9654C3.95299 12.0929 3.64042 12.1343 3.33588 12.0842C3.03133 12.0341 2.74849 11.8948 2.52314 11.6839C2.2978 11.473 2.14008 11.2 2.06993 10.8994C1.99979 10.5989 2.02038 10.2842 2.1291 9.99539C2.23782 9.70653 2.42977 9.45642 2.68068 9.27669C2.88576 9.13279 3.05317 8.94162 3.16874 8.71934C3.28431 8.49706 3.34465 8.25022 3.34465 7.99969C3.34465 7.74916 3.28431 7.50232 3.16874 7.28004C3.05317 7.05776 2.88576 6.86659 2.68068 6.72269C2.43013 6.54287 2.23849 6.29281 2.12999 6.00412C2.02149 5.71543 2.001 5.40106 2.0711 5.10072C2.1412 4.80039 2.29875 4.52757 2.52384 4.31674C2.74893 4.10591 3.03146 3.96653 3.33573 3.91621C3.64001 3.86589 3.95237 3.90689 4.23335 4.03402C4.46052 4.13985 4.70985 4.18938 4.96022 4.17844C5.21059 4.16749 5.45464 4.09639 5.67171 3.97114C5.88878 3.84589 6.07248 3.6702 6.20726 3.45891C6.34204 3.24763 6.42394 3.00699 6.44602 2.75736" fill-rule="nonzero" stroke="rgb(122,96,80)" stroke-linecap="round" stroke-linejoin="round" stroke-width="1.333333" />
	<circle id="椭圆 1" cx="8" cy="8" r="2" stroke="rgb(122,96,80)" stroke-linecap="round" stroke-linejoin="round" stroke-width="1.333333" />
</svg>
