<svg viewBox="0 0 16 16" xmlns="http://www.w3.org/2000/svg" xmlns:xlink="http://www.w3.org/1999/xlink" width="16.000000" height="16.000000" fill="none" customFrame="#000000">
	<rect id="sparkles" width="16.000000" height="16.000000" x="0.000000" y="0.000000" />
	<path id="矢量 141" d="M7.50734 1.54931C7.59087 1.45766 7.69832 1.39112 7.81759 1.35718C7.93686 1.32324 8.06324 1.32324 8.18251 1.35718C8.30178 1.39112 8.40923 1.45766 8.49276 1.54931C8.5763 1.64096 8.63261 1.75409 8.65538 1.87599L9.35605 5.58132C9.40581 5.84475 9.53383 6.08707 9.7234 6.27664C9.91297 6.46621 10.1553 6.59423 10.4187 6.64399L14.124 7.34466C14.2459 7.36742 14.3591 7.42374 14.4507 7.50728C14.5424 7.59081 14.6089 7.69825 14.6429 7.81753C14.6768 7.9368 14.6768 8.06318 14.6429 8.18245C14.6089 8.30172 14.5424 8.40916 14.4507 8.4927C14.3591 8.57624 14.2459 8.63255 14.124 8.65532L10.4187 9.35599C10.1553 9.40575 9.91297 9.53377 9.7234 9.72334C9.53383 9.91291 9.40581 10.1552 9.35605 10.4187L8.65538 14.124C8.63261 14.2459 8.5763 14.359 8.49276 14.4507C8.40923 14.5423 8.30178 14.6089 8.18251 14.6428C8.06324 14.6767 7.93686 14.6767 7.81759 14.6428C7.69832 14.6089 7.59087 14.5423 7.50734 14.4507C7.4238 14.359 7.36748 14.2459 7.34472 14.124L6.64405 10.4187C6.59429 10.1552 6.46627 9.91291 6.2767 9.72334C6.08713 9.53377 5.84481 9.40575 5.58138 9.35599L1.87605 8.65532C1.75415 8.63255 1.64102 8.57624 1.54937 8.4927C1.45772 8.40916 1.39118 8.30172 1.35724 8.18245C1.3233 8.06318 1.3233 7.9368 1.35724 7.81753C1.39118 7.69825 1.45772 7.59081 1.54937 7.50728C1.64102 7.42374 1.75415 7.36742 1.87605 7.34466L5.58138 6.64399C5.84481 6.59423 6.08713 6.46621 6.2767 6.27664C6.46627 6.08707 6.59429 5.84475 6.64405 5.58132L7.34472 1.87599C7.36749 1.75409 7.4238 1.64096 7.50734 1.54931Z" fill-rule="nonzero" stroke="rgb(201,168,124)" stroke-linecap="round" stroke-linejoin="round" stroke-width="1.333333" />
	<path id="矢量 142" d="M13.3335 1.33331L13.3335 3.99998" stroke="rgb(201,168,124)" stroke-linecap="round" stroke-linejoin="round" stroke-width="1.333333" />
	<path id="矢量 143" d="M14.6667 2.66669L12 2.66669" stroke="rgb(201,168,124)" stroke-linecap="round" stroke-linejoin="round" stroke-width="1.333333" />
	<circle id="椭圆 16" cx="2.66682959" cy="13.333333" r="1.33333337" stroke="rgb(201,168,124)" stroke-linecap="round" stroke-linejoin="round" stroke-width="1.333333" />
</svg>
