<svg viewBox="0 0 14 14" xmlns="http://www.w3.org/2000/svg" xmlns:xlink="http://www.w3.org/1999/xlink" width="14.000000" height="14.000000" fill="none" customFrame="#000000">
	<rect id="trash-2" width="14.000000" height="14.000000" x="0.000000" y="0.000000" />
	<path id="矢量 206" d="M5.83301 6.41666L5.83301 9.91666" stroke="rgb(198,40,40)" stroke-linecap="round" stroke-linejoin="round" stroke-width="1.166667" />
	<path id="矢量 207" d="M8.16699 6.41666L8.16699 9.91666" stroke="rgb(198,40,40)" stroke-linecap="round" stroke-linejoin="round" stroke-width="1.166667" />
	<path id="矢量 208" d="M11.0837 3.5L11.0837 11.6667C11.0837 11.8715 11.0298 12.0726 10.9274 12.25C10.825 12.4274 10.6777 12.5746 10.5003 12.677C10.323 12.7794 10.1218 12.8333 9.91699 12.8333L4.08366 12.8333C3.87887 12.8333 3.67768 12.7794 3.50033 12.677C3.32297 12.5746 3.17569 12.4274 3.0733 12.25C2.9709 12.0726 2.91699 11.8715 2.91699 11.6667L2.91699 3.5" fill-rule="nonzero" stroke="rgb(198,40,40)" stroke-linecap="round" stroke-linejoin="round" stroke-width="1.166667" />
	<path id="矢量 209" d="M1.75 3.5L12.25 3.5" stroke="rgb(198,40,40)" stroke-linecap="round" stroke-linejoin="round" stroke-width="1.166667" />
	<path id="矢量 210" d="M4.66699 3.49999L4.66699 2.33332C4.66699 2.12853 4.7209 1.92735 4.8233 1.74999C4.92569 1.57263 5.07297 1.42536 5.25033 1.32296C5.42768 1.22056 5.62887 1.16666 5.83366 1.16666L8.16699 1.16666C8.37179 1.16666 8.57297 1.22056 8.75033 1.32296C8.92768 1.42536 9.07496 1.57263 9.17735 1.74999C9.27975 1.92735 9.33366 2.12853 9.33366 2.33332L9.33366 3.49999" fill-rule="nonzero" stroke="rgb(198,40,40)" stroke-linecap="round" stroke-linejoin="round" stroke-width="1.166667" />
</svg>
