<svg viewBox="0 0 16 16" xmlns="http://www.w3.org/2000/svg" xmlns:xlink="http://www.w3.org/1999/xlink" width="16.000000" height="16.000000" fill="none" customFrame="#000000">
	<rect id="zap" width="16.000000" height="16.000000" x="0.000000" y="0.000000" />
	<path id="矢量 144" d="M2.31005 9.23133C2.20319 9.16426 2.11757 9.06824 2.06311 8.95444C2.00865 8.84064 1.9876 8.71373 2.00241 8.58845C2.01721 8.46316 2.06726 8.34465 2.14674 8.24667L8.74674 1.44667C8.78621 1.40111 8.8373 1.36711 8.89456 1.34828C8.95182 1.32945 9.01312 1.32651 9.07193 1.33975C9.13073 1.353 9.18485 1.38194 9.22851 1.4235C9.27217 1.46506 9.30374 1.51769 9.31986 1.57577C9.33599 1.63385 9.33606 1.69522 9.32008 1.75334L8.04008 5.76667C8.00233 5.86769 7.98966 5.97635 8.00314 6.08334C8.01662 6.19034 8.05585 6.29246 8.11747 6.38096C8.17909 6.46945 8.26126 6.54168 8.35693 6.59145C8.45259 6.64121 8.55891 6.66702 8.66674 6.66667L13.3334 6.66667C13.4596 6.66624 13.5833 6.70162 13.6901 6.76869C13.797 6.83576 13.8826 6.93177 13.937 7.04557C13.9915 7.15937 14.0125 7.28628 13.9977 7.41157C13.9829 7.53685 13.9329 7.65537 13.8534 7.75334L7.25341 14.5533C7.21394 14.5989 7.16285 14.6329 7.10559 14.6517C7.04833 14.6706 6.98703 14.6735 6.92823 14.6603C6.86942 14.647 6.81531 14.6181 6.77165 14.5765C6.72799 14.5349 6.69641 14.4823 6.68029 14.4242C6.66416 14.3662 6.66409 14.3048 6.68008 14.2467L7.96008 10.2333C7.99782 10.1323 8.0105 10.0237 7.99702 9.91667C7.98354 9.80968 7.9443 9.70755 7.88268 9.61906C7.82106 9.53056 7.7389 9.45833 7.64323 9.40857C7.54756 9.3588 7.44125 9.33299 7.33341 9.33334L2.66674 9.33334C2.54059 9.33377 2.4169 9.2984 2.31005 9.23133Z" fill-rule="nonzero" stroke="rgb(124,168,201)" stroke-linecap="round" stroke-linejoin="round" stroke-width="1.333333" />
</svg>
