<svg viewBox="0 0 12 12" xmlns="http://www.w3.org/2000/svg" xmlns:xlink="http://www.w3.org/1999/xlink" width="12.000000" height="12.000000" fill="none" customFrame="#000000">
	<rect id="zap" width="12.000000" height="12.000000" x="0.000000" y="0.000000" />
	<path id="矢量 31" d="M1.73247 6.92348C1.65233 6.87318 1.58811 6.80117 1.54727 6.71582C1.50643 6.63047 1.49064 6.53528 1.50175 6.44132C1.51285 6.34735 1.55039 6.25847 1.61 6.18499L6.56 1.08499C6.5896 1.05082 6.62791 1.02532 6.67086 1.0112C6.71381 0.997075 6.75978 0.994864 6.80388 1.0048C6.84799 1.01473 6.88857 1.03644 6.92132 1.06761C6.95406 1.09878 6.97774 1.13825 6.98984 1.18181C7.00193 1.22537 7.00199 1.2714 6.99 1.31499L6.03 4.32499C6.00169 4.40075 5.99218 4.48225 6.00229 4.56249C6.0124 4.64274 6.04183 4.71933 6.08804 4.7857C6.13426 4.85208 6.19588 4.90625 6.26763 4.94357C6.33938 4.98089 6.41912 5.00025 6.5 4.99999L10 4.99999C10.0946 4.99967 10.1874 5.0262 10.2675 5.0765C10.3477 5.1268 10.4119 5.19881 10.4527 5.28416C10.4936 5.36951 10.5093 5.4647 10.4982 5.55866C10.4871 5.65263 10.4496 5.74151 10.39 5.81499L5.44 10.915C5.41039 10.9492 5.37208 10.9747 5.32913 10.9888C5.28619 11.0029 5.24021 11.0051 5.19611 10.9952C5.152 10.9852 5.11142 10.9635 5.07867 10.9324C5.04593 10.9012 5.02225 10.8617 5.01016 10.8182C4.99806 10.7746 4.99801 10.7286 5.01 10.685L5.97 7.67499C5.99831 7.59923 6.00781 7.51773 5.9977 7.43749C5.98759 7.35724 5.95817 7.28065 5.91195 7.21428C5.86574 7.1479 5.80411 7.09373 5.73236 7.05641C5.66061 7.01909 5.58087 6.99973 5.5 6.99999L2 6.99999C1.90538 7.00031 1.81261 6.97378 1.73247 6.92348Z" fill-rule="nonzero" stroke="rgb(232,120,58)" stroke-linecap="round" stroke-linejoin="round" stroke-width="1.000000" />
</svg>
